<svg
  xmlns="http://www.w3.org/2000/svg"
  width="896"
  height="288"
  viewBox="0 0 896 288"
  fill="none"
>
  <style>
    * {
      transform-origin: center;
      transform-box: fill-box;
    }

    .animate-ping {
      animation: ping 1s cubic-bezier(0, 0, 0.2, 1) infinite;
    }

    .animate-fade-in {
      animation: fade-in 0.64s cubic-bezier(0, 0, 0.2, 1) forwards;
    }

    .animate-fade-in-bottom {
      animation: fade-in-bottom 0.64s cubic-bezier(0, 0, 0.2, 1) forwards;
    }

    .animate-fade-in-right {
      animation: fade-in-right 0.64s cubic-bezier(0, 0, 0.2, 1) forwards;
    }

    .title {
      opacity: 0;
      animation-delay: 0.4s;
    }

    .description {
      opacity: 0;
      animation-delay: 0.7s;
    }

    .additional {
      opacity: 0;
      animation-delay: 1s;
    }

    .additional__indicator {
      opacity: 0;
      animation-delay: 1.6s;
    }

    @keyframes ping {
      75%,
      100% {
        transform: scale(2);
        opacity: 0;
      }
    }

    @keyframes fade-in {
      from {
        opacity: 0;
      }
      to {
        opacity: 1;
      }
    }

    @keyframes fade-in-bottom {
      from {
        opacity: 0;
        transform: translate3d(0, -20px, 0);
      }
      to {
        opacity: 1;
        transform: translate3d(0, 0, 0);
      }
    }

    @keyframes fade-in-right {
      from {
        opacity: 0;
        transform: translate3d(-20px, 0, 0);
      }
      to {
        opacity: 1;
        transform: translate3d(0, 0, 0);
      }
    }
  </style>
  <g clip-path="url(#clip0_1_2)">
    <!-- #region background  -->
    <rect width="896" height="288" fill="url(#paint0_linear_1_2)" />
    <mask
      id="mask0_1_2"
      style="mask-type: alpha"
      maskUnits="userSpaceOnUse"
      x="0"
      y="0"
      width="896"
      height="288"
    >
      <rect width="896" height="288" fill="url(#paint1_linear_1_2)" />
    </mask>
    <g mask="url(#mask0_1_2)">
      <path
        d="M32.5001 0L32.5001 288M64.5001 0L64.5001 288M96.5001 0L96.5001 288M128.5 0L128.5 288M160.5 0L160.5 288M192.5 0L192.5 288M224.5 0L224.5 288M256.5 0V288M288.5 0V288M320.5 0V288M352.5 0V288M384.5 0V288M416.5 0V288M448.5 0V288M480.5 0V288M512.5 0V288M544.5 0V288M576.5 0V288M608.5 0V288M640.5 0V288M672.5 0V288M704.5 0V288M736.5 0V288M768.5 0V288M800.5 0V288M832.5 0V288M864.5 0V288M0 31.5H896M0 63.5H896M0 95.5H896M0 127.5H896M0 159.5H896M0 191.5H896M0 223.5H896M0 255.5H896"
        stroke="black"
        stroke-opacity="0.07"
        stroke-dasharray="5 5"
      />
    </g>
    <!-- #endregion -->

    <!-- #region title -->
    <g class="animate-fade-in-bottom title">
      <path
        d="M204.125 100.364V144H193.578V100.364H204.125ZM219.418 100.364V105.222C219.418 106.571 219.148 107.935 218.608 109.312C218.083 110.676 217.394 111.955 216.541 113.148C215.689 114.341 214.787 115.349 213.835 116.173L209.404 113.744C210.057 112.665 210.639 111.45 211.151 110.101C211.662 108.737 211.918 107.118 211.918 105.243V100.364H219.418ZM223.988 144V111.273H233.896V117.281H234.258C234.94 115.293 236.09 113.723 237.71 112.572C239.329 111.422 241.261 110.847 243.505 110.847C245.778 110.847 247.724 111.429 249.343 112.594C250.963 113.759 251.992 115.321 252.433 117.281H252.774C253.384 115.335 254.578 113.78 256.353 112.615C258.129 111.436 260.224 110.847 262.639 110.847C265.735 110.847 268.249 111.841 270.181 113.83C272.113 115.804 273.079 118.517 273.079 121.969V144H262.66V124.355C262.66 122.722 262.241 121.479 261.403 120.626C260.565 119.76 259.478 119.327 258.143 119.327C256.708 119.327 255.579 119.795 254.755 120.733C253.945 121.656 253.541 122.899 253.541 124.462V144H243.526V124.249C243.526 122.729 243.115 121.528 242.291 120.648C241.467 119.767 240.38 119.327 239.031 119.327C238.122 119.327 237.319 119.547 236.623 119.987C235.927 120.413 235.38 121.024 234.982 121.82C234.599 122.615 234.407 123.553 234.407 124.632V144H223.988ZM522.816 100.364H535.877L546.957 127.381H547.468L558.548 100.364H571.609V144H561.339V117.196H560.977L550.494 143.723H543.931L533.448 117.047H533.086V144H522.816V100.364ZM599.302 129.874V111.273H609.7V144H599.771V137.906H599.43C598.706 139.909 597.47 141.5 595.723 142.679C593.99 143.844 591.895 144.426 589.437 144.426C587.207 144.426 585.247 143.915 583.557 142.892C581.866 141.869 580.552 140.442 579.615 138.609C578.677 136.763 578.202 134.604 578.187 132.132V111.273H588.606V130.087C588.621 131.862 589.089 133.261 590.013 134.284C590.936 135.307 592.193 135.818 593.784 135.818C594.821 135.818 595.751 135.591 596.575 135.136C597.413 134.668 598.074 133.993 598.557 133.112C599.054 132.217 599.302 131.138 599.302 129.874ZM616.332 144V111.273H626.24V117.281H626.602C627.284 115.293 628.434 113.723 630.053 112.572C631.673 111.422 633.605 110.847 635.849 110.847C638.122 110.847 640.068 111.429 641.687 112.594C643.306 113.759 644.336 115.321 644.776 117.281H645.117C645.728 115.335 646.921 113.78 648.697 112.615C650.472 111.436 652.568 110.847 654.982 110.847C658.079 110.847 660.593 111.841 662.525 113.83C664.457 115.804 665.423 118.517 665.423 121.969V144H655.004V124.355C655.004 122.722 654.585 121.479 653.747 120.626C652.909 119.76 651.822 119.327 650.487 119.327C649.052 119.327 647.923 119.795 647.099 120.733C646.289 121.656 645.884 122.899 645.884 124.462V144H635.87V124.249C635.87 122.729 635.458 121.528 634.634 120.648C633.811 119.767 632.724 119.327 631.374 119.327C630.465 119.327 629.663 119.547 628.967 119.987C628.271 120.413 627.724 121.024 627.326 121.82C626.943 122.615 626.751 123.553 626.751 124.632V144H616.332ZM687.156 144.618C683.718 144.618 680.764 143.915 678.292 142.509C675.835 141.088 673.938 139.114 672.603 136.585C671.282 134.043 670.622 131.095 670.622 127.743C670.622 124.376 671.282 121.429 672.603 118.901C673.938 116.358 675.835 114.384 678.292 112.977C680.764 111.557 683.718 110.847 687.156 110.847C690.593 110.847 693.541 111.557 695.998 112.977C698.47 114.384 700.366 116.358 701.687 118.901C703.022 121.429 703.69 124.376 703.69 127.743C703.69 131.095 703.022 134.043 701.687 136.585C700.366 139.114 698.47 141.088 695.998 142.509C693.541 143.915 690.593 144.618 687.156 144.618ZM687.22 136.756C688.47 136.756 689.528 136.372 690.394 135.605C691.261 134.838 691.921 133.773 692.376 132.409C692.845 131.045 693.079 129.469 693.079 127.679C693.079 125.861 692.845 124.27 692.376 122.906C691.921 121.543 691.261 120.477 690.394 119.71C689.528 118.943 688.47 118.56 687.22 118.56C685.927 118.56 684.833 118.943 683.938 119.71C683.058 120.477 682.383 121.543 681.914 122.906C681.46 124.27 681.232 125.861 681.232 127.679C681.232 129.469 681.46 131.045 681.914 132.409C682.383 133.773 683.058 134.838 683.938 135.605C684.833 136.372 685.927 136.756 687.22 136.756Z"
        fill="#334155"
      />
      <path
        d="M301.865 144H290.529L305.252 100.364H319.294L334.017 144H322.681L312.433 111.358H312.092L301.865 144ZM300.352 126.827H324.045V134.838H300.352V126.827ZM349.134 125.335V144H338.715V111.273H348.622V117.281H348.985C349.709 115.278 350.945 113.709 352.692 112.572C354.439 111.422 356.52 110.847 358.935 110.847C361.236 110.847 363.232 111.365 364.922 112.402C366.627 113.425 367.948 114.859 368.885 116.706C369.837 118.538 370.306 120.683 370.291 123.141V144H359.872V125.186C359.887 123.368 359.425 121.947 358.487 120.925C357.564 119.902 356.279 119.391 354.631 119.391C353.537 119.391 352.571 119.632 351.733 120.115C350.909 120.584 350.27 121.259 349.816 122.139C349.375 123.02 349.148 124.085 349.134 125.335ZM395.215 111.273V118.943H374.569V111.273H395.215ZM378.894 103.432H389.313V133.709C389.313 134.348 389.412 134.866 389.611 135.264C389.824 135.648 390.13 135.925 390.528 136.095C390.925 136.251 391.401 136.33 391.955 136.33C392.353 136.33 392.772 136.294 393.212 136.223C393.667 136.138 394.008 136.067 394.235 136.01L395.812 143.531C395.314 143.673 394.611 143.851 393.702 144.064C392.807 144.277 391.735 144.412 390.485 144.469C388.042 144.582 385.947 144.298 384.199 143.616C382.466 142.92 381.138 141.841 380.215 140.378C379.306 138.915 378.866 137.075 378.894 134.859V103.432ZM415.456 144.618C412.019 144.618 409.064 143.915 406.593 142.509C404.135 141.088 402.239 139.114 400.904 136.585C399.583 134.043 398.922 131.095 398.922 127.743C398.922 124.376 399.583 121.429 400.904 118.901C402.239 116.358 404.135 114.384 406.593 112.977C409.064 111.557 412.019 110.847 415.456 110.847C418.894 110.847 421.841 111.557 424.299 112.977C426.77 114.384 428.667 116.358 429.988 118.901C431.323 121.429 431.991 124.376 431.991 127.743C431.991 131.095 431.323 134.043 429.988 136.585C428.667 139.114 426.77 141.088 424.299 142.509C421.841 143.915 418.894 144.618 415.456 144.618ZM415.52 136.756C416.77 136.756 417.829 136.372 418.695 135.605C419.562 134.838 420.222 133.773 420.677 132.409C421.145 131.045 421.38 129.469 421.38 127.679C421.38 125.861 421.145 124.27 420.677 122.906C420.222 121.543 419.562 120.477 418.695 119.71C417.829 118.943 416.77 118.56 415.52 118.56C414.228 118.56 413.134 118.943 412.239 119.71C411.358 120.477 410.684 121.543 410.215 122.906C409.76 124.27 409.533 125.861 409.533 127.679C409.533 129.469 409.76 131.045 410.215 132.409C410.684 133.773 411.358 134.838 412.239 135.605C413.134 136.372 414.228 136.756 415.52 136.756ZM447.747 125.335V144H437.328V111.273H447.236V117.281H447.598C448.322 115.278 449.558 113.709 451.305 112.572C453.052 111.422 455.133 110.847 457.548 110.847C459.849 110.847 461.845 111.365 463.535 112.402C465.24 113.425 466.561 114.859 467.498 116.706C468.45 118.538 468.919 120.683 468.905 123.141V144H458.486V125.186C458.5 123.368 458.038 121.947 457.101 120.925C456.177 119.902 454.892 119.391 453.244 119.391C452.15 119.391 451.184 119.632 450.346 120.115C449.523 120.584 448.883 121.259 448.429 122.139C447.988 123.02 447.761 124.085 447.747 125.335ZM480.554 156.273C479.304 156.273 478.125 156.173 477.017 155.974C475.909 155.79 474.958 155.541 474.162 155.229L476.463 147.665C477.486 148.006 478.409 148.205 479.233 148.261C480.071 148.318 480.789 148.183 481.385 147.857C481.996 147.544 482.465 146.983 482.791 146.173L483.196 145.193L471.563 111.273H482.472L488.502 134.625H488.843L494.958 111.273H505.931L493.594 147.132C492.997 148.922 492.152 150.499 491.058 151.862C489.979 153.24 488.58 154.32 486.861 155.101C485.156 155.882 483.054 156.273 480.554 156.273Z"
        fill="#01BF71"
      />
    </g>
    <!-- #endregion -->

    <!-- #region description -->
    <g class="animate-fade-in-bottom description">
      <path
        d="M257.943 174.545H259.365V181.249C259.365 181.855 259.245 182.373 259.005 182.804C258.768 183.235 258.434 183.565 258.003 183.792C257.573 184.017 257.068 184.129 256.489 184.129C255.957 184.129 255.478 184.032 255.053 183.838C254.632 183.645 254.298 183.363 254.052 182.994C253.809 182.621 253.687 182.169 253.687 181.636H255.104C255.104 181.898 255.164 182.124 255.284 182.315C255.407 182.506 255.575 182.655 255.788 182.763C256.003 182.867 256.249 182.92 256.526 182.92C256.828 182.92 257.083 182.857 257.292 182.73C257.505 182.601 257.666 182.412 257.777 182.163C257.888 181.913 257.943 181.609 257.943 181.249V174.545ZM263.394 184.157C262.945 184.157 262.539 184.074 262.176 183.908C261.812 183.738 261.525 183.494 261.312 183.174C261.103 182.854 260.998 182.461 260.998 181.996C260.998 181.596 261.075 181.267 261.229 181.009C261.383 180.75 261.591 180.545 261.852 180.395C262.114 180.244 262.406 180.13 262.73 180.053C263.053 179.976 263.382 179.917 263.717 179.877C264.142 179.828 264.487 179.788 264.752 179.757C265.016 179.724 265.209 179.67 265.329 179.596C265.449 179.522 265.509 179.402 265.509 179.236V179.203C265.509 178.8 265.395 178.488 265.167 178.266C264.942 178.045 264.607 177.934 264.161 177.934C263.696 177.934 263.33 178.037 263.062 178.243C262.797 178.446 262.614 178.673 262.513 178.922L261.215 178.626C261.369 178.196 261.594 177.848 261.889 177.583C262.188 177.315 262.531 177.121 262.919 177.001C263.307 176.878 263.714 176.817 264.142 176.817C264.425 176.817 264.725 176.851 265.042 176.918C265.362 176.983 265.661 177.103 265.938 177.278C266.218 177.454 266.447 177.705 266.626 178.031C266.804 178.354 266.894 178.774 266.894 179.291V184H265.546V183.031H265.49C265.401 183.209 265.267 183.384 265.089 183.557C264.91 183.729 264.681 183.872 264.401 183.986C264.121 184.1 263.785 184.157 263.394 184.157ZM263.694 183.049C264.076 183.049 264.402 182.974 264.673 182.823C264.947 182.672 265.155 182.475 265.296 182.232C265.441 181.986 265.513 181.723 265.513 181.442V180.528C265.464 180.578 265.369 180.624 265.227 180.667C265.089 180.707 264.93 180.742 264.752 180.773C264.573 180.801 264.399 180.827 264.23 180.852C264.061 180.873 263.919 180.892 263.805 180.907C263.537 180.941 263.293 180.998 263.071 181.078C262.853 181.158 262.677 181.273 262.545 181.424C262.416 181.572 262.351 181.769 262.351 182.015C262.351 182.357 262.477 182.615 262.73 182.79C262.982 182.963 263.304 183.049 263.694 183.049ZM274.544 176.909L271.973 184H270.496L267.92 176.909H269.402L271.197 182.366H271.271L273.062 176.909H274.544ZM277.702 184.157C277.253 184.157 276.846 184.074 276.483 183.908C276.12 183.738 275.832 183.494 275.62 183.174C275.411 182.854 275.306 182.461 275.306 181.996C275.306 181.596 275.383 181.267 275.537 181.009C275.691 180.75 275.898 180.545 276.16 180.395C276.422 180.244 276.714 180.13 277.037 180.053C277.36 179.976 277.69 179.917 278.025 179.877C278.45 179.828 278.794 179.788 279.059 179.757C279.324 179.724 279.516 179.67 279.636 179.596C279.756 179.522 279.816 179.402 279.816 179.236V179.203C279.816 178.8 279.702 178.488 279.475 178.266C279.25 178.045 278.915 177.934 278.468 177.934C278.004 177.934 277.637 178.037 277.37 178.243C277.105 178.446 276.922 178.673 276.82 178.922L275.523 178.626C275.677 178.196 275.902 177.848 276.197 177.583C276.495 177.315 276.839 177.121 277.226 177.001C277.614 176.878 278.022 176.817 278.45 176.817C278.733 176.817 279.033 176.851 279.35 176.918C279.67 176.983 279.969 177.103 280.246 177.278C280.526 177.454 280.755 177.705 280.933 178.031C281.112 178.354 281.201 178.774 281.201 179.291V184H279.853V183.031H279.798C279.709 183.209 279.575 183.384 279.396 183.557C279.218 183.729 278.988 183.872 278.708 183.986C278.428 184.1 278.093 184.157 277.702 184.157ZM278.002 183.049C278.384 183.049 278.71 182.974 278.981 182.823C279.255 182.672 279.462 182.475 279.604 182.232C279.749 181.986 279.821 181.723 279.821 181.442V180.528C279.772 180.578 279.676 180.624 279.535 180.667C279.396 180.707 279.238 180.742 279.059 180.773C278.881 180.801 278.707 180.827 278.538 180.852C278.368 180.873 278.227 180.892 278.113 180.907C277.845 180.941 277.6 180.998 277.379 181.078C277.16 181.158 276.985 181.273 276.852 181.424C276.723 181.572 276.659 181.769 276.659 182.015C276.659 182.357 276.785 182.615 277.037 182.79C277.29 182.963 277.611 183.049 278.002 183.049ZM288.307 177.029C288.258 176.592 288.055 176.254 287.698 176.013C287.341 175.77 286.891 175.649 286.35 175.649C285.962 175.649 285.626 175.71 285.343 175.833C285.06 175.953 284.84 176.12 284.683 176.332C284.529 176.541 284.452 176.78 284.452 177.048C284.452 177.272 284.505 177.466 284.609 177.629C284.717 177.792 284.857 177.929 285.029 178.04C285.205 178.148 285.393 178.239 285.593 178.312C285.793 178.383 285.985 178.442 286.17 178.488L287.093 178.728C287.395 178.802 287.704 178.902 288.021 179.028C288.338 179.154 288.632 179.32 288.903 179.527C289.173 179.733 289.392 179.988 289.558 180.293C289.727 180.598 289.812 180.962 289.812 181.387C289.812 181.923 289.674 182.398 289.397 182.814C289.123 183.229 288.724 183.557 288.201 183.797C287.681 184.037 287.051 184.157 286.313 184.157C285.605 184.157 284.992 184.045 284.475 183.82C283.958 183.595 283.554 183.277 283.261 182.864C282.969 182.449 282.807 181.956 282.777 181.387H284.208C284.235 181.729 284.346 182.013 284.54 182.241C284.737 182.466 284.988 182.634 285.293 182.744C285.6 182.852 285.937 182.906 286.304 182.906C286.707 182.906 287.065 182.843 287.379 182.717C287.696 182.587 287.946 182.409 288.127 182.181C288.309 181.95 288.399 181.681 288.399 181.373C288.399 181.093 288.319 180.864 288.159 180.685C288.002 180.507 287.789 180.359 287.518 180.242C287.25 180.125 286.947 180.022 286.608 179.933L285.491 179.628C284.734 179.422 284.134 179.119 283.691 178.719C283.251 178.319 283.03 177.789 283.03 177.131C283.03 176.586 283.178 176.11 283.474 175.704C283.769 175.298 284.169 174.982 284.674 174.758C285.179 174.53 285.748 174.416 286.382 174.416C287.022 174.416 287.587 174.529 288.076 174.753C288.569 174.978 288.957 175.287 289.24 175.681C289.523 176.072 289.671 176.521 289.683 177.029H288.307ZM294.393 184.143C293.706 184.143 293.116 183.988 292.62 183.677C292.128 183.363 291.749 182.931 291.484 182.38C291.22 181.829 291.087 181.198 291.087 180.487C291.087 179.767 291.223 179.131 291.494 178.58C291.764 178.026 292.146 177.594 292.639 177.283C293.131 176.972 293.711 176.817 294.379 176.817C294.918 176.817 295.398 176.917 295.819 177.117C296.241 177.314 296.581 177.591 296.84 177.948C297.101 178.305 297.257 178.722 297.306 179.199H295.962C295.889 178.866 295.719 178.58 295.455 178.34C295.193 178.1 294.842 177.98 294.402 177.98C294.017 177.98 293.68 178.082 293.391 178.285C293.105 178.485 292.882 178.771 292.722 179.143C292.562 179.513 292.482 179.95 292.482 180.455C292.482 180.972 292.56 181.418 292.717 181.793C292.874 182.169 293.096 182.46 293.382 182.666C293.671 182.872 294.011 182.975 294.402 182.975C294.664 182.975 294.901 182.927 295.113 182.832C295.328 182.734 295.508 182.594 295.653 182.412C295.801 182.23 295.904 182.012 295.962 181.756H297.306C297.257 182.215 297.107 182.624 296.858 182.984C296.609 183.344 296.275 183.628 295.856 183.834C295.441 184.04 294.953 184.143 294.393 184.143ZM298.782 184V176.909H300.116V178.036H300.19C300.319 177.654 300.547 177.354 300.873 177.135C301.202 176.914 301.575 176.803 301.99 176.803C302.077 176.803 302.178 176.806 302.295 176.812C302.415 176.818 302.509 176.826 302.577 176.835V178.156C302.521 178.14 302.423 178.123 302.281 178.105C302.14 178.083 301.998 178.072 301.856 178.072C301.53 178.072 301.239 178.142 300.984 178.28C300.732 178.416 300.532 178.605 300.384 178.848C300.236 179.088 300.162 179.362 300.162 179.67V184H298.782ZM303.771 184V176.909H305.152V184H303.771ZM304.468 175.815C304.228 175.815 304.022 175.735 303.85 175.575C303.68 175.412 303.596 175.218 303.596 174.993C303.596 174.766 303.68 174.572 303.85 174.412C304.022 174.248 304.228 174.167 304.468 174.167C304.708 174.167 304.913 174.248 305.082 174.412C305.255 174.572 305.341 174.766 305.341 174.993C305.341 175.218 305.255 175.412 305.082 175.575C304.913 175.735 304.708 175.815 304.468 175.815ZM307.008 186.659V176.909H308.356V178.059H308.472C308.552 177.911 308.667 177.74 308.818 177.546C308.969 177.352 309.178 177.183 309.446 177.038C309.714 176.891 310.068 176.817 310.508 176.817C311.08 176.817 311.591 176.961 312.04 177.251C312.49 177.54 312.842 177.957 313.098 178.502C313.356 179.047 313.485 179.702 313.485 180.468C313.485 181.235 313.358 181.892 313.102 182.44C312.847 182.984 312.496 183.404 312.05 183.7C311.603 183.992 311.094 184.138 310.522 184.138C310.091 184.138 309.738 184.066 309.464 183.922C309.194 183.777 308.981 183.608 308.827 183.414C308.673 183.22 308.555 183.047 308.472 182.897H308.389V186.659H307.008ZM308.361 180.455C308.361 180.953 308.433 181.39 308.578 181.766C308.723 182.141 308.932 182.435 309.206 182.647C309.48 182.857 309.815 182.961 310.212 182.961C310.625 182.961 310.969 182.852 311.246 182.634C311.523 182.412 311.733 182.112 311.874 181.733C312.019 181.355 312.091 180.929 312.091 180.455C312.091 179.987 312.02 179.567 311.879 179.194C311.74 178.822 311.531 178.528 311.251 178.312C310.974 178.097 310.628 177.989 310.212 177.989C309.812 177.989 309.474 178.092 309.197 178.299C308.923 178.505 308.715 178.793 308.573 179.162C308.432 179.531 308.361 179.962 308.361 180.455ZM318.342 176.909V178.017H314.469V176.909H318.342ZM315.507 175.21H316.888V181.918C316.888 182.186 316.928 182.387 317.008 182.523C317.088 182.655 317.191 182.746 317.317 182.795C317.446 182.841 317.586 182.864 317.737 182.864C317.848 182.864 317.945 182.857 318.028 182.841C318.111 182.826 318.176 182.814 318.222 182.804L318.471 183.945C318.391 183.975 318.277 184.006 318.13 184.037C317.982 184.071 317.797 184.089 317.576 184.092C317.212 184.098 316.874 184.034 316.56 183.898C316.246 183.763 315.992 183.554 315.798 183.271C315.604 182.987 315.507 182.632 315.507 182.204V175.21ZM326.481 184H323.42V174.545H326.578C327.504 174.545 328.3 174.735 328.964 175.113C329.629 175.489 330.139 176.029 330.492 176.734C330.85 177.435 331.028 178.277 331.028 179.259C331.028 180.244 330.848 181.09 330.488 181.798C330.131 182.506 329.614 183.051 328.937 183.432C328.26 183.811 327.441 184 326.481 184ZM324.847 182.754H326.402C327.122 182.754 327.721 182.618 328.198 182.347C328.675 182.073 329.032 181.678 329.269 181.161C329.506 180.641 329.625 180.007 329.625 179.259C329.625 178.517 329.506 177.888 329.269 177.371C329.035 176.854 328.686 176.461 328.221 176.194C327.756 175.926 327.179 175.792 326.49 175.792H324.847V182.754ZM335.747 184.143C335.049 184.143 334.447 183.994 333.942 183.695C333.441 183.394 333.053 182.971 332.779 182.426C332.508 181.878 332.373 181.236 332.373 180.501C332.373 179.774 332.508 179.134 332.779 178.58C333.053 178.026 333.434 177.594 333.924 177.283C334.416 176.972 334.992 176.817 335.65 176.817C336.05 176.817 336.438 176.883 336.814 177.015C337.189 177.148 337.526 177.355 337.825 177.638C338.123 177.922 338.359 178.289 338.531 178.742C338.703 179.191 338.789 179.737 338.789 180.381V180.87H333.153V179.836H337.437C337.437 179.473 337.363 179.151 337.215 178.871C337.068 178.588 336.86 178.365 336.592 178.202C336.327 178.039 336.016 177.957 335.659 177.957C335.272 177.957 334.933 178.052 334.644 178.243C334.358 178.431 334.136 178.677 333.979 178.982C333.825 179.283 333.748 179.611 333.748 179.965V180.773C333.748 181.247 333.831 181.65 333.998 181.983C334.167 182.315 334.402 182.569 334.704 182.744C335.005 182.917 335.358 183.003 335.761 183.003C336.023 183.003 336.261 182.966 336.477 182.892C336.692 182.815 336.878 182.701 337.035 182.55C337.192 182.4 337.312 182.213 337.395 181.992L338.702 182.227C338.597 182.612 338.409 182.949 338.139 183.238C337.871 183.525 337.534 183.748 337.128 183.908C336.724 184.065 336.264 184.143 335.747 184.143ZM346.184 176.909L343.613 184H342.135L339.559 176.909H341.041L342.837 182.366H342.911L344.702 176.909H346.184ZM350.296 184.143C349.597 184.143 348.996 183.994 348.491 183.695C347.989 183.394 347.602 182.971 347.328 182.426C347.057 181.878 346.921 181.236 346.921 180.501C346.921 179.774 347.057 179.134 347.328 178.58C347.602 178.026 347.983 177.594 348.473 177.283C348.965 176.972 349.54 176.817 350.199 176.817C350.599 176.817 350.987 176.883 351.362 177.015C351.738 177.148 352.075 177.355 352.373 177.638C352.672 177.922 352.907 178.289 353.08 178.742C353.252 179.191 353.338 179.737 353.338 180.381V180.87H347.702V179.836H351.986C351.986 179.473 351.912 179.151 351.764 178.871C351.616 178.588 351.409 178.365 351.141 178.202C350.876 178.039 350.565 177.957 350.208 177.957C349.821 177.957 349.482 178.052 349.193 178.243C348.906 178.431 348.685 178.677 348.528 178.982C348.374 179.283 348.297 179.611 348.297 179.965V180.773C348.297 181.247 348.38 181.65 348.546 181.983C348.716 182.315 348.951 182.569 349.253 182.744C349.554 182.917 349.907 183.003 350.31 183.003C350.571 183.003 350.81 182.966 351.025 182.892C351.241 182.815 351.427 182.701 351.584 182.55C351.741 182.4 351.861 182.213 351.944 181.992L353.251 182.227C353.146 182.612 352.958 182.949 352.687 183.238C352.42 183.525 352.083 183.748 351.676 183.908C351.273 184.065 350.813 184.143 350.296 184.143ZM356.25 174.545V184H354.87V174.545H356.25ZM361.094 184.143C360.429 184.143 359.849 183.991 359.354 183.686C358.858 183.381 358.473 182.955 358.199 182.407C357.926 181.859 357.789 181.219 357.789 180.487C357.789 179.751 357.926 179.108 358.199 178.557C358.473 178.006 358.858 177.578 359.354 177.274C359.849 176.969 360.429 176.817 361.094 176.817C361.759 176.817 362.339 176.969 362.834 177.274C363.33 177.578 363.715 178.006 363.989 178.557C364.262 179.108 364.399 179.751 364.399 180.487C364.399 181.219 364.262 181.859 363.989 182.407C363.715 182.955 363.33 183.381 362.834 183.686C362.339 183.991 361.759 184.143 361.094 184.143ZM361.099 182.984C361.529 182.984 361.886 182.871 362.17 182.643C362.453 182.415 362.662 182.112 362.797 181.733C362.936 181.355 363.005 180.938 363.005 180.482C363.005 180.03 362.936 179.614 362.797 179.236C362.662 178.854 362.453 178.548 362.17 178.317C361.886 178.086 361.529 177.971 361.099 177.971C360.665 177.971 360.305 178.086 360.018 178.317C359.735 178.548 359.524 178.854 359.386 179.236C359.25 179.614 359.183 180.03 359.183 180.482C359.183 180.938 359.25 181.355 359.386 181.733C359.524 182.112 359.735 182.415 360.018 182.643C360.305 182.871 360.665 182.984 361.099 182.984ZM365.94 186.659V176.909H367.288V178.059H367.404C367.484 177.911 367.599 177.74 367.75 177.546C367.901 177.352 368.11 177.183 368.378 177.038C368.645 176.891 368.999 176.817 369.439 176.817C370.012 176.817 370.523 176.961 370.972 177.251C371.421 177.54 371.774 177.957 372.029 178.502C372.288 179.047 372.417 179.702 372.417 180.468C372.417 181.235 372.289 181.892 372.034 182.44C371.778 182.984 371.428 183.404 370.981 183.7C370.535 183.992 370.026 184.138 369.453 184.138C369.022 184.138 368.67 184.066 368.396 183.922C368.125 183.777 367.913 183.608 367.759 183.414C367.605 183.22 367.487 183.047 367.404 182.897H367.32V186.659H365.94ZM367.293 180.455C367.293 180.953 367.365 181.39 367.51 181.766C367.654 182.141 367.864 182.435 368.138 182.647C368.411 182.857 368.747 182.961 369.144 182.961C369.556 182.961 369.901 182.852 370.178 182.634C370.455 182.412 370.664 182.112 370.806 181.733C370.951 181.355 371.023 180.929 371.023 180.455C371.023 179.987 370.952 179.567 370.811 179.194C370.672 178.822 370.463 178.528 370.183 178.312C369.906 178.097 369.559 177.989 369.144 177.989C368.744 177.989 368.405 178.092 368.128 178.299C367.854 178.505 367.647 178.793 367.505 179.162C367.364 179.531 367.293 179.962 367.293 180.455ZM377.02 184.143C376.321 184.143 375.719 183.994 375.215 183.695C374.713 183.394 374.325 182.971 374.051 182.426C373.78 181.878 373.645 181.236 373.645 180.501C373.645 179.774 373.78 179.134 374.051 178.58C374.325 178.026 374.707 177.594 375.196 177.283C375.689 176.972 376.264 176.817 376.923 176.817C377.323 176.817 377.711 176.883 378.086 177.015C378.462 177.148 378.799 177.355 379.097 177.638C379.396 177.922 379.631 178.289 379.803 178.742C379.976 179.191 380.062 179.737 380.062 180.381V180.87H374.425V179.836H378.709C378.709 179.473 378.635 179.151 378.488 178.871C378.34 178.588 378.132 178.365 377.864 178.202C377.6 178.039 377.289 177.957 376.932 177.957C376.544 177.957 376.206 178.052 375.916 178.243C375.63 178.431 375.409 178.677 375.252 178.982C375.098 179.283 375.021 179.611 375.021 179.965V180.773C375.021 181.247 375.104 181.65 375.27 181.983C375.439 182.315 375.675 182.569 375.976 182.744C376.278 182.917 376.63 183.003 377.034 183.003C377.295 183.003 377.534 182.966 377.749 182.892C377.965 182.815 378.151 182.701 378.308 182.55C378.465 182.4 378.585 182.213 378.668 181.992L379.974 182.227C379.87 182.612 379.682 182.949 379.411 183.238C379.143 183.525 378.806 183.748 378.4 183.908C377.997 184.065 377.537 184.143 377.02 184.143ZM381.593 184V176.909H382.928V178.036H383.001C383.131 177.654 383.358 177.354 383.685 177.135C384.014 176.914 384.386 176.803 384.802 176.803C384.888 176.803 384.99 176.806 385.107 176.812C385.227 176.818 385.32 176.826 385.388 176.835V178.156C385.333 178.14 385.234 178.123 385.093 178.105C384.951 178.083 384.81 178.072 384.668 178.072C384.342 178.072 384.051 178.142 383.795 178.28C383.543 178.416 383.343 178.605 383.195 178.848C383.048 179.088 382.974 179.362 382.974 179.67V184H381.593ZM390.933 180.782C390.68 180.782 390.463 180.693 390.282 180.515C390.1 180.333 390.009 180.114 390.009 179.859C390.009 179.607 390.1 179.391 390.282 179.213C390.463 179.031 390.68 178.94 390.933 178.94C391.185 178.94 391.402 179.031 391.583 179.213C391.765 179.391 391.856 179.607 391.856 179.859C391.856 180.028 391.813 180.184 391.727 180.325C391.644 180.464 391.533 180.575 391.394 180.658C391.256 180.741 391.102 180.782 390.933 180.782ZM402.413 177.029C402.363 176.592 402.16 176.254 401.803 176.013C401.446 175.77 400.997 175.649 400.455 175.649C400.067 175.649 399.732 175.71 399.449 175.833C399.166 175.953 398.946 176.12 398.789 176.332C398.635 176.541 398.558 176.78 398.558 177.048C398.558 177.272 398.61 177.466 398.715 177.629C398.823 177.792 398.963 177.929 399.135 178.04C399.31 178.148 399.498 178.239 399.698 178.312C399.898 178.383 400.091 178.442 400.275 178.488L401.198 178.728C401.5 178.802 401.809 178.902 402.126 179.028C402.443 179.154 402.737 179.32 403.008 179.527C403.279 179.733 403.497 179.988 403.664 180.293C403.833 180.598 403.918 180.962 403.918 181.387C403.918 181.923 403.779 182.398 403.502 182.814C403.228 183.229 402.83 183.557 402.306 183.797C401.786 184.037 401.157 184.157 400.418 184.157C399.71 184.157 399.098 184.045 398.581 183.82C398.064 183.595 397.659 183.277 397.367 182.864C397.074 182.449 396.913 181.956 396.882 181.387H398.313C398.341 181.729 398.452 182.013 398.646 182.241C398.843 182.466 399.093 182.634 399.398 182.744C399.706 182.852 400.043 182.906 400.409 182.906C400.812 182.906 401.171 182.843 401.485 182.717C401.802 182.587 402.051 182.409 402.233 182.181C402.414 181.95 402.505 181.681 402.505 181.373C402.505 181.093 402.425 180.864 402.265 180.685C402.108 180.507 401.894 180.359 401.623 180.242C401.355 180.125 401.052 180.022 400.714 179.933L399.597 179.628C398.839 179.422 398.239 179.119 397.796 178.719C397.356 178.319 397.136 177.789 397.136 177.131C397.136 176.586 397.284 176.11 397.579 175.704C397.875 175.298 398.275 174.982 398.779 174.758C399.284 174.53 399.854 174.416 400.488 174.416C401.128 174.416 401.692 174.529 402.182 174.753C402.674 174.978 403.062 175.287 403.345 175.681C403.628 176.072 403.776 176.521 403.788 177.029H402.413ZM408.498 184.143C407.833 184.143 407.253 183.991 406.758 183.686C406.262 183.381 405.878 182.955 405.604 182.407C405.33 181.859 405.193 181.219 405.193 180.487C405.193 179.751 405.33 179.108 405.604 178.557C405.878 178.006 406.262 177.578 406.758 177.274C407.253 176.969 407.833 176.817 408.498 176.817C409.163 176.817 409.743 176.969 410.239 177.274C410.734 177.578 411.119 178.006 411.393 178.557C411.667 179.108 411.804 179.751 411.804 180.487C411.804 181.219 411.667 181.859 411.393 182.407C411.119 182.955 410.734 183.381 410.239 183.686C409.743 183.991 409.163 184.143 408.498 184.143ZM408.503 182.984C408.934 182.984 409.291 182.871 409.574 182.643C409.857 182.415 410.066 182.112 410.202 181.733C410.34 181.355 410.409 180.938 410.409 180.482C410.409 180.03 410.34 179.614 410.202 179.236C410.066 178.854 409.857 178.548 409.574 178.317C409.291 178.086 408.934 177.971 408.503 177.971C408.069 177.971 407.709 178.086 407.423 178.317C407.139 178.548 406.929 178.854 406.79 179.236C406.655 179.614 406.587 180.03 406.587 180.482C406.587 180.938 406.655 181.355 406.79 181.733C406.929 182.112 407.139 182.415 407.423 182.643C407.709 182.871 408.069 182.984 408.503 182.984ZM416.719 176.909V178.017H412.712V176.909H416.719ZM413.811 184V176.087C413.811 175.644 413.908 175.276 414.102 174.984C414.295 174.689 414.552 174.469 414.872 174.324C415.193 174.176 415.54 174.102 415.916 174.102C416.193 174.102 416.43 174.125 416.627 174.172C416.824 174.215 416.97 174.255 417.065 174.292L416.742 175.409C416.678 175.39 416.594 175.369 416.493 175.344C416.391 175.316 416.268 175.303 416.124 175.303C415.788 175.303 415.548 175.386 415.403 175.552C415.262 175.718 415.191 175.958 415.191 176.272V184H413.811ZM421.453 176.909V178.017H417.58V176.909H421.453ZM418.619 175.21H419.999V181.918C419.999 182.186 420.039 182.387 420.119 182.523C420.199 182.655 420.302 182.746 420.428 182.795C420.558 182.841 420.698 182.864 420.848 182.864C420.959 182.864 421.056 182.857 421.139 182.841C421.222 182.826 421.287 182.814 421.333 182.804L421.583 183.945C421.503 183.975 421.389 184.006 421.241 184.037C421.093 184.071 420.909 184.089 420.687 184.092C420.324 184.098 419.985 184.034 419.671 183.898C419.357 183.763 419.103 183.554 418.91 183.271C418.716 182.987 418.619 182.632 418.619 182.204V175.21ZM424.517 184L422.431 176.909H423.857L425.247 182.116H425.316L426.71 176.909H428.137L429.522 182.093H429.591L430.971 176.909H432.398L430.316 184H428.908L427.467 178.88H427.361L425.921 184H424.517ZM435.771 184.157C435.322 184.157 434.916 184.074 434.553 183.908C434.189 183.738 433.902 183.494 433.689 183.174C433.48 182.854 433.375 182.461 433.375 181.996C433.375 181.596 433.452 181.267 433.606 181.009C433.76 180.75 433.968 180.545 434.229 180.395C434.491 180.244 434.783 180.13 435.106 180.053C435.43 179.976 435.759 179.917 436.094 179.877C436.519 179.828 436.864 179.788 437.129 179.757C437.393 179.724 437.586 179.67 437.706 179.596C437.826 179.522 437.886 179.402 437.886 179.236V179.203C437.886 178.8 437.772 178.488 437.544 178.266C437.319 178.045 436.984 177.934 436.538 177.934C436.073 177.934 435.707 178.037 435.439 178.243C435.174 178.446 434.991 178.673 434.89 178.922L433.592 178.626C433.746 178.196 433.971 177.848 434.266 177.583C434.565 177.315 434.908 177.121 435.296 177.001C435.684 176.878 436.091 176.817 436.519 176.817C436.802 176.817 437.102 176.851 437.419 176.918C437.739 176.983 438.038 177.103 438.315 177.278C438.595 177.454 438.824 177.705 439.003 178.031C439.181 178.354 439.271 178.774 439.271 179.291V184H437.923V183.031H437.867C437.778 183.209 437.644 183.384 437.466 183.557C437.287 183.729 437.058 183.872 436.778 183.986C436.498 184.1 436.162 184.157 435.771 184.157ZM436.071 183.049C436.453 183.049 436.779 182.974 437.05 182.823C437.324 182.672 437.532 182.475 437.673 182.232C437.818 181.986 437.89 181.723 437.89 181.442V180.528C437.841 180.578 437.746 180.624 437.604 180.667C437.466 180.707 437.307 180.742 437.129 180.773C436.95 180.801 436.776 180.827 436.607 180.852C436.438 180.873 436.296 180.892 436.182 180.907C435.914 180.941 435.67 180.998 435.448 181.078C435.23 181.158 435.054 181.273 434.922 181.424C434.793 181.572 434.728 181.769 434.728 182.015C434.728 182.357 434.854 182.615 435.106 182.79C435.359 182.963 435.68 183.049 436.071 183.049ZM441.109 184V176.909H442.443V178.036H442.517C442.646 177.654 442.874 177.354 443.2 177.135C443.53 176.914 443.902 176.803 444.318 176.803C444.404 176.803 444.505 176.806 444.622 176.812C444.742 176.818 444.836 176.826 444.904 176.835V178.156C444.848 178.14 444.75 178.123 444.608 178.105C444.467 178.083 444.325 178.072 444.184 178.072C443.857 178.072 443.567 178.142 443.311 178.28C443.059 178.416 442.859 178.605 442.711 178.848C442.563 179.088 442.489 179.362 442.489 179.67V184H441.109ZM448.901 184.143C448.202 184.143 447.6 183.994 447.095 183.695C446.594 183.394 446.206 182.971 445.932 182.426C445.661 181.878 445.526 181.236 445.526 180.501C445.526 179.774 445.661 179.134 445.932 178.58C446.206 178.026 446.588 177.594 447.077 177.283C447.569 176.972 448.145 176.817 448.804 176.817C449.204 176.817 449.591 176.883 449.967 177.015C450.342 177.148 450.679 177.355 450.978 177.638C451.276 177.922 451.512 178.289 451.684 178.742C451.857 179.191 451.943 179.737 451.943 180.381V180.87H446.306V179.836H450.59C450.59 179.473 450.516 179.151 450.369 178.871C450.221 178.588 450.013 178.365 449.745 178.202C449.481 178.039 449.17 177.957 448.813 177.957C448.425 177.957 448.086 178.052 447.797 178.243C447.511 178.431 447.289 178.677 447.132 178.982C446.979 179.283 446.902 179.611 446.902 179.965V180.773C446.902 181.247 446.985 181.65 447.151 181.983C447.32 182.315 447.556 182.569 447.857 182.744C448.159 182.917 448.511 183.003 448.914 183.003C449.176 183.003 449.414 182.966 449.63 182.892C449.845 182.815 450.032 182.701 450.189 182.55C450.345 182.4 450.466 182.213 450.549 181.992L451.855 182.227C451.75 182.612 451.563 182.949 451.292 183.238C451.024 183.525 450.687 183.748 450.281 183.908C449.878 184.065 449.418 184.143 448.901 184.143ZM457.026 184V174.545H462.953V175.773H458.452V178.654H462.644V179.877H458.452V182.772H463.008V184H457.026ZM466.128 179.79V184H464.748V176.909H466.073V178.063H466.16C466.323 177.688 466.579 177.386 466.927 177.158C467.278 176.931 467.719 176.817 468.252 176.817C468.735 176.817 469.158 176.918 469.521 177.121C469.884 177.321 470.166 177.62 470.366 178.017C470.566 178.414 470.666 178.905 470.666 179.49V184H469.286V179.656C469.286 179.142 469.152 178.74 468.884 178.451C468.616 178.159 468.249 178.012 467.781 178.012C467.461 178.012 467.176 178.082 466.927 178.22C466.681 178.359 466.485 178.562 466.34 178.83C466.199 179.094 466.128 179.414 466.128 179.79ZM475.49 186.807C474.927 186.807 474.442 186.733 474.036 186.585C473.633 186.438 473.304 186.242 473.048 185.999C472.793 185.756 472.602 185.49 472.476 185.2L473.662 184.711C473.745 184.846 473.856 184.989 473.995 185.14C474.136 185.294 474.327 185.425 474.567 185.533C474.81 185.64 475.122 185.694 475.504 185.694C476.027 185.694 476.46 185.567 476.801 185.311C477.143 185.059 477.314 184.656 477.314 184.102V182.707H477.226C477.143 182.858 477.023 183.026 476.866 183.211C476.712 183.395 476.5 183.555 476.229 183.691C475.958 183.826 475.606 183.894 475.172 183.894C474.612 183.894 474.107 183.763 473.658 183.501C473.211 183.237 472.857 182.847 472.596 182.333C472.337 181.816 472.208 181.181 472.208 180.427C472.208 179.673 472.336 179.027 472.591 178.488C472.85 177.949 473.204 177.537 473.653 177.251C474.102 176.961 474.612 176.817 475.181 176.817C475.621 176.817 475.977 176.891 476.247 177.038C476.518 177.183 476.729 177.352 476.88 177.546C477.034 177.74 477.152 177.911 477.235 178.059H477.337V176.909H478.689V184.157C478.689 184.766 478.548 185.266 478.265 185.657C477.982 186.048 477.598 186.337 477.115 186.525C476.635 186.713 476.093 186.807 475.49 186.807ZM475.476 182.749C475.873 182.749 476.209 182.657 476.483 182.472C476.76 182.284 476.969 182.016 477.111 181.669C477.255 181.318 477.328 180.898 477.328 180.408C477.328 179.931 477.257 179.511 477.115 179.148C476.974 178.785 476.766 178.502 476.492 178.299C476.218 178.092 475.88 177.989 475.476 177.989C475.061 177.989 474.715 178.097 474.438 178.312C474.161 178.525 473.951 178.814 473.81 179.18C473.671 179.547 473.602 179.956 473.602 180.408C473.602 180.873 473.673 181.281 473.814 181.632C473.956 181.983 474.165 182.257 474.442 182.453C474.722 182.65 475.067 182.749 475.476 182.749ZM480.541 184V176.909H481.921V184H480.541ZM481.238 175.815C480.998 175.815 480.792 175.735 480.619 175.575C480.45 175.412 480.365 175.218 480.365 174.993C480.365 174.766 480.45 174.572 480.619 174.412C480.792 174.248 480.998 174.167 481.238 174.167C481.478 174.167 481.683 174.248 481.852 174.412C482.024 174.572 482.11 174.766 482.11 174.993C482.11 175.218 482.024 175.412 481.852 175.575C481.683 175.735 481.478 175.815 481.238 175.815ZM485.158 179.79V184H483.778V176.909H485.103V178.063H485.191C485.354 177.688 485.609 177.386 485.957 177.158C486.308 176.931 486.749 176.817 487.282 176.817C487.765 176.817 488.188 176.918 488.551 177.121C488.915 177.321 489.196 177.62 489.396 178.017C489.596 178.414 489.696 178.905 489.696 179.49V184H488.316V179.656C488.316 179.142 488.182 178.74 487.914 178.451C487.647 178.159 487.279 178.012 486.811 178.012C486.491 178.012 486.206 178.082 485.957 178.22C485.711 178.359 485.515 178.562 485.371 178.83C485.229 179.094 485.158 179.414 485.158 179.79ZM494.604 184.143C493.905 184.143 493.303 183.994 492.799 183.695C492.297 183.394 491.909 182.971 491.635 182.426C491.364 181.878 491.229 181.236 491.229 180.501C491.229 179.774 491.364 179.134 491.635 178.58C491.909 178.026 492.291 177.594 492.78 177.283C493.273 176.972 493.848 176.817 494.507 176.817C494.907 176.817 495.295 176.883 495.67 177.015C496.046 177.148 496.383 177.355 496.681 177.638C496.98 177.922 497.215 178.289 497.387 178.742C497.56 179.191 497.646 179.737 497.646 180.381V180.87H492.009V179.836H496.293C496.293 179.473 496.219 179.151 496.072 178.871C495.924 178.588 495.716 178.365 495.448 178.202C495.184 178.039 494.873 177.957 494.516 177.957C494.128 177.957 493.79 178.052 493.5 178.243C493.214 178.431 492.992 178.677 492.836 178.982C492.682 179.283 492.605 179.611 492.605 179.965V180.773C492.605 181.247 492.688 181.65 492.854 181.983C493.023 182.315 493.259 182.569 493.56 182.744C493.862 182.917 494.214 183.003 494.617 183.003C494.879 183.003 495.118 182.966 495.333 182.892C495.548 182.815 495.735 182.701 495.892 182.55C496.049 182.4 496.169 182.213 496.252 181.992L497.558 182.227C497.454 182.612 497.266 182.949 496.995 183.238C496.727 183.525 496.39 183.748 495.984 183.908C495.581 184.065 495.121 184.143 494.604 184.143ZM502.234 184.143C501.535 184.143 500.933 183.994 500.428 183.695C499.927 183.394 499.539 182.971 499.265 182.426C498.994 181.878 498.859 181.236 498.859 180.501C498.859 179.774 498.994 179.134 499.265 178.58C499.539 178.026 499.921 177.594 500.41 177.283C500.902 176.972 501.478 176.817 502.137 176.817C502.537 176.817 502.924 176.883 503.3 177.015C503.675 177.148 504.012 177.355 504.311 177.638C504.609 177.922 504.845 178.289 505.017 178.742C505.19 179.191 505.276 179.737 505.276 180.381V180.87H499.639V179.836H503.923C503.923 179.473 503.849 179.151 503.702 178.871C503.554 178.588 503.346 178.365 503.078 178.202C502.814 178.039 502.503 177.957 502.146 177.957C501.758 177.957 501.419 178.052 501.13 178.243C500.844 178.431 500.622 178.677 500.465 178.982C500.312 179.283 500.235 179.611 500.235 179.965V180.773C500.235 181.247 500.318 181.65 500.484 181.983C500.653 182.315 500.889 182.569 501.19 182.744C501.492 182.917 501.844 183.003 502.247 183.003C502.509 183.003 502.747 182.966 502.963 182.892C503.178 182.815 503.365 182.701 503.522 182.55C503.678 182.4 503.799 182.213 503.882 181.992L505.188 182.227C505.083 182.612 504.896 182.949 504.625 183.238C504.357 183.525 504.02 183.748 503.614 183.908C503.211 184.065 502.751 184.143 502.234 184.143ZM506.807 184V176.909H508.141V178.036H508.215C508.345 177.654 508.572 177.354 508.899 177.135C509.228 176.914 509.6 176.803 510.016 176.803C510.102 176.803 510.203 176.806 510.32 176.812C510.44 176.818 510.534 176.826 510.602 176.835V178.156C510.547 178.14 510.448 178.123 510.307 178.105C510.165 178.083 510.023 178.072 509.882 178.072C509.556 178.072 509.265 178.142 509.009 178.28C508.757 178.416 508.557 178.605 508.409 178.848C508.261 179.088 508.188 179.362 508.188 179.67V184H506.807ZM516.146 180.782C515.894 180.782 515.677 180.693 515.496 180.515C515.314 180.333 515.223 180.114 515.223 179.859C515.223 179.607 515.314 179.391 515.496 179.213C515.677 179.031 515.894 178.94 516.146 178.94C516.399 178.94 516.616 179.031 516.797 179.213C516.979 179.391 517.07 179.607 517.07 179.859C517.07 180.028 517.027 180.184 516.94 180.325C516.857 180.464 516.747 180.575 516.608 180.658C516.47 180.741 516.316 180.782 516.146 180.782ZM522.47 184V174.545H528.333V175.773H523.896V178.654H527.913V179.877H523.896V184H522.47ZM529.887 184V176.909H531.222V178.036H531.295C531.425 177.654 531.652 177.354 531.979 177.135C532.308 176.914 532.68 176.803 533.096 176.803C533.182 176.803 533.284 176.806 533.401 176.812C533.521 176.818 533.614 176.826 533.682 176.835V178.156C533.627 178.14 533.528 178.123 533.387 178.105C533.245 178.083 533.104 178.072 532.962 178.072C532.636 178.072 532.345 178.142 532.089 178.28C531.837 178.416 531.637 178.605 531.489 178.848C531.342 179.088 531.268 179.362 531.268 179.67V184H529.887ZM537.61 184.143C536.945 184.143 536.365 183.991 535.869 183.686C535.374 183.381 534.989 182.955 534.715 182.407C534.441 181.859 534.304 181.219 534.304 180.487C534.304 179.751 534.441 179.108 534.715 178.557C534.989 178.006 535.374 177.578 535.869 177.274C536.365 176.969 536.945 176.817 537.61 176.817C538.274 176.817 538.855 176.969 539.35 177.274C539.846 177.578 540.23 178.006 540.504 178.557C540.778 179.108 540.915 179.751 540.915 180.487C540.915 181.219 540.778 181.859 540.504 182.407C540.23 182.955 539.846 183.381 539.35 183.686C538.855 183.991 538.274 184.143 537.61 184.143ZM537.614 182.984C538.045 182.984 538.402 182.871 538.685 182.643C538.968 182.415 539.178 182.112 539.313 181.733C539.452 181.355 539.521 180.938 539.521 180.482C539.521 180.03 539.452 179.614 539.313 179.236C539.178 178.854 538.968 178.548 538.685 178.317C538.402 178.086 538.045 177.971 537.614 177.971C537.18 177.971 536.82 178.086 536.534 178.317C536.251 178.548 536.04 178.854 535.902 179.236C535.766 179.614 535.698 180.03 535.698 180.482C535.698 180.938 535.766 181.355 535.902 181.733C536.04 182.112 536.251 182.415 536.534 182.643C536.82 182.871 537.18 182.984 537.614 182.984ZM543.836 179.79V184H542.456V176.909H543.781V178.063H543.868C544.032 177.688 544.287 177.386 544.635 177.158C544.986 176.931 545.427 176.817 545.96 176.817C546.443 176.817 546.866 176.918 547.229 177.121C547.592 177.321 547.874 177.62 548.074 178.017C548.274 178.414 548.374 178.905 548.374 179.49V184H546.994V179.656C546.994 179.142 546.86 178.74 546.592 178.451C546.324 178.159 545.957 178.012 545.489 178.012C545.169 178.012 544.884 178.082 544.635 178.22C544.389 178.359 544.193 178.562 544.048 178.83C543.907 179.094 543.836 179.414 543.836 179.79ZM553.535 176.909V178.017H549.662V176.909H553.535ZM550.701 175.21H552.081V181.918C552.081 182.186 552.121 182.387 552.201 182.523C552.281 182.655 552.384 182.746 552.51 182.795C552.64 182.841 552.78 182.864 552.931 182.864C553.041 182.864 553.138 182.857 553.221 182.841C553.304 182.826 553.369 182.814 553.415 182.804L553.665 183.945C553.585 183.975 553.471 184.006 553.323 184.037C553.175 184.071 552.991 184.089 552.769 184.092C552.406 184.098 552.067 184.034 551.753 183.898C551.439 183.763 551.186 183.554 550.992 183.271C550.798 182.987 550.701 182.632 550.701 182.204V175.21ZM558.999 179.407V180.602H554.807V179.407H558.999ZM563.895 184.143C563.196 184.143 562.594 183.994 562.09 183.695C561.588 183.394 561.2 182.971 560.926 182.426C560.655 181.878 560.52 181.236 560.52 180.501C560.52 179.774 560.655 179.134 560.926 178.58C561.2 178.026 561.582 177.594 562.071 177.283C562.564 176.972 563.139 176.817 563.798 176.817C564.198 176.817 564.586 176.883 564.961 177.015C565.337 177.148 565.674 177.355 565.972 177.638C566.271 177.922 566.506 178.289 566.678 178.742C566.851 179.191 566.937 179.737 566.937 180.381V180.87H561.3V179.836H565.584C565.584 179.473 565.51 179.151 565.363 178.871C565.215 178.588 565.007 178.365 564.739 178.202C564.475 178.039 564.164 177.957 563.807 177.957C563.419 177.957 563.081 178.052 562.791 178.243C562.505 178.431 562.284 178.677 562.127 178.982C561.973 179.283 561.896 179.611 561.896 179.965V180.773C561.896 181.247 561.979 181.65 562.145 181.983C562.314 182.315 562.55 182.569 562.851 182.744C563.153 182.917 563.505 183.003 563.909 183.003C564.17 183.003 564.409 182.966 564.624 182.892C564.84 182.815 565.026 182.701 565.183 182.55C565.34 182.4 565.46 182.213 565.543 181.992L566.849 182.227C566.745 182.612 566.557 182.949 566.286 183.238C566.018 183.525 565.681 183.748 565.275 183.908C564.872 184.065 564.412 184.143 563.895 184.143ZM569.849 179.79V184H568.468V176.909H569.793V178.063H569.881C570.044 177.688 570.3 177.386 570.647 177.158C570.998 176.931 571.44 176.817 571.972 176.817C572.456 176.817 572.879 176.918 573.242 177.121C573.605 177.321 573.887 177.62 574.087 178.017C574.287 178.414 574.387 178.905 574.387 179.49V184H573.006V179.656C573.006 179.142 572.873 178.74 572.605 178.451C572.337 178.159 571.969 178.012 571.501 178.012C571.181 178.012 570.897 178.082 570.647 178.22C570.401 178.359 570.206 178.562 570.061 178.83C569.92 179.094 569.849 179.414 569.849 179.79ZM578.892 184.138C578.32 184.138 577.809 183.992 577.36 183.7C576.914 183.404 576.563 182.984 576.307 182.44C576.055 181.892 575.929 181.235 575.929 180.468C575.929 179.702 576.056 179.047 576.312 178.502C576.57 177.957 576.924 177.54 577.374 177.251C577.823 176.961 578.332 176.817 578.902 176.817C579.342 176.817 579.696 176.891 579.963 177.038C580.234 177.183 580.444 177.352 580.591 177.546C580.742 177.74 580.859 177.911 580.942 178.059H581.025V174.545H582.406V184H581.058V182.897H580.942C580.859 183.047 580.739 183.22 580.582 183.414C580.428 183.608 580.216 183.777 579.945 183.922C579.674 184.066 579.323 184.138 578.892 184.138ZM579.197 182.961C579.594 182.961 579.93 182.857 580.204 182.647C580.481 182.435 580.69 182.141 580.831 181.766C580.976 181.39 581.048 180.953 581.048 180.455C581.048 179.962 580.978 179.531 580.836 179.162C580.694 178.793 580.487 178.505 580.213 178.299C579.939 178.092 579.6 177.989 579.197 177.989C578.782 177.989 578.435 178.097 578.158 178.312C577.881 178.528 577.672 178.822 577.531 179.194C577.392 179.567 577.323 179.987 577.323 180.455C577.323 180.929 577.394 181.355 577.535 181.733C577.677 182.112 577.886 182.412 578.163 182.634C578.443 182.852 578.788 182.961 579.197 182.961ZM587.927 184V174.545H593.854V175.773H589.353V178.654H593.545V179.877H589.353V182.772H593.91V184H587.927ZM597.029 179.79V184H595.649V176.909H596.974V178.063H597.062C597.225 177.688 597.48 177.386 597.828 177.158C598.179 176.931 598.621 176.817 599.153 176.817C599.636 176.817 600.059 176.918 600.423 177.121C600.786 177.321 601.067 177.62 601.267 178.017C601.467 178.414 601.567 178.905 601.567 179.49V184H600.187V179.656C600.187 179.142 600.053 178.74 599.785 178.451C599.518 178.159 599.15 178.012 598.682 178.012C598.362 178.012 598.077 178.082 597.828 178.22C597.582 178.359 597.386 178.562 597.242 178.83C597.1 179.094 597.029 179.414 597.029 179.79ZM606.392 186.807C605.828 186.807 605.344 186.733 604.937 186.585C604.534 186.438 604.205 186.242 603.95 185.999C603.694 185.756 603.503 185.49 603.377 185.2L604.564 184.711C604.647 184.846 604.757 184.989 604.896 185.14C605.037 185.294 605.228 185.425 605.468 185.533C605.711 185.64 606.024 185.694 606.405 185.694C606.929 185.694 607.361 185.567 607.703 185.311C608.044 185.059 608.215 184.656 608.215 184.102V182.707H608.127C608.044 182.858 607.924 183.026 607.767 183.211C607.613 183.395 607.401 183.555 607.13 183.691C606.859 183.826 606.507 183.894 606.073 183.894C605.513 183.894 605.008 183.763 604.559 183.501C604.113 183.237 603.759 182.847 603.497 182.333C603.239 181.816 603.109 181.181 603.109 180.427C603.109 179.673 603.237 179.027 603.492 178.488C603.751 177.949 604.105 177.537 604.554 177.251C605.004 176.961 605.513 176.817 606.082 176.817C606.522 176.817 606.878 176.891 607.149 177.038C607.42 177.183 607.63 177.352 607.781 177.546C607.935 177.74 608.054 177.911 608.137 178.059H608.238V176.909H609.591V184.157C609.591 184.766 609.449 185.266 609.166 185.657C608.883 186.048 608.5 186.337 608.017 186.525C607.537 186.713 606.995 186.807 606.392 186.807ZM606.378 182.749C606.775 182.749 607.11 182.657 607.384 182.472C607.661 182.284 607.87 182.016 608.012 181.669C608.157 181.318 608.229 180.898 608.229 180.408C608.229 179.931 608.158 179.511 608.017 179.148C607.875 178.785 607.667 178.502 607.393 178.299C607.12 178.092 606.781 177.989 606.378 177.989C605.962 177.989 605.616 178.097 605.339 178.312C605.062 178.525 604.853 178.814 604.711 179.18C604.573 179.547 604.504 179.956 604.504 180.408C604.504 180.873 604.574 181.281 604.716 181.632C604.857 181.983 605.067 182.257 605.344 182.453C605.624 182.65 605.968 182.749 606.378 182.749ZM611.442 184V176.909H612.822V184H611.442ZM612.139 175.815C611.899 175.815 611.693 175.735 611.521 175.575C611.351 175.412 611.267 175.218 611.267 174.993C611.267 174.766 611.351 174.572 611.521 174.412C611.693 174.248 611.899 174.167 612.139 174.167C612.379 174.167 612.584 174.248 612.753 174.412C612.926 174.572 613.012 174.766 613.012 174.993C613.012 175.218 612.926 175.412 612.753 175.575C612.584 175.735 612.379 175.815 612.139 175.815ZM616.06 179.79V184H614.679V176.909H616.004V178.063H616.092C616.255 177.688 616.511 177.386 616.858 177.158C617.209 176.931 617.651 176.817 618.183 176.817C618.666 176.817 619.09 176.918 619.453 177.121C619.816 177.321 620.098 177.62 620.298 178.017C620.498 178.414 620.598 178.905 620.598 179.49V184H619.217V179.656C619.217 179.142 619.083 178.74 618.816 178.451C618.548 178.159 618.18 178.012 617.712 178.012C617.392 178.012 617.108 178.082 616.858 178.22C616.612 178.359 616.417 178.562 616.272 178.83C616.13 179.094 616.06 179.414 616.06 179.79ZM625.505 184.143C624.806 184.143 624.205 183.994 623.7 183.695C623.198 183.394 622.811 182.971 622.537 182.426C622.266 181.878 622.13 181.236 622.13 180.501C622.13 179.774 622.266 179.134 622.537 178.58C622.811 178.026 623.192 177.594 623.682 177.283C624.174 176.972 624.749 176.817 625.408 176.817C625.808 176.817 626.196 176.883 626.571 177.015C626.947 177.148 627.284 177.355 627.582 177.638C627.881 177.922 628.116 178.289 628.289 178.742C628.461 179.191 628.547 179.737 628.547 180.381V180.87H622.911V179.836H627.195C627.195 179.473 627.121 179.151 626.973 178.871C626.825 178.588 626.618 178.365 626.35 178.202C626.085 178.039 625.774 177.957 625.417 177.957C625.03 177.957 624.691 178.052 624.402 178.243C624.115 178.431 623.894 178.677 623.737 178.982C623.583 179.283 623.506 179.611 623.506 179.965V180.773C623.506 181.247 623.589 181.65 623.755 181.983C623.925 182.315 624.16 182.569 624.462 182.744C624.763 182.917 625.116 183.003 625.519 183.003C625.78 183.003 626.019 182.966 626.234 182.892C626.45 182.815 626.636 182.701 626.793 182.55C626.95 182.4 627.07 182.213 627.153 181.992L628.46 182.227C628.355 182.612 628.167 182.949 627.896 183.238C627.629 183.525 627.292 183.748 626.885 183.908C626.482 184.065 626.022 184.143 625.505 184.143ZM633.135 184.143C632.436 184.143 631.835 183.994 631.33 183.695C630.828 183.394 630.44 182.971 630.167 182.426C629.896 181.878 629.76 181.236 629.76 180.501C629.76 179.774 629.896 179.134 630.167 178.58C630.44 178.026 630.822 177.594 631.311 177.283C631.804 176.972 632.379 176.817 633.038 176.817C633.438 176.817 633.826 176.883 634.201 177.015C634.577 177.148 634.914 177.355 635.212 177.638C635.511 177.922 635.746 178.289 635.919 178.742C636.091 179.191 636.177 179.737 636.177 180.381V180.87H630.54V179.836H634.825C634.825 179.473 634.751 179.151 634.603 178.871C634.455 178.588 634.247 178.365 633.98 178.202C633.715 178.039 633.404 177.957 633.047 177.957C632.659 177.957 632.321 178.052 632.032 178.243C631.745 178.431 631.524 178.677 631.367 178.982C631.213 179.283 631.136 179.611 631.136 179.965V180.773C631.136 181.247 631.219 181.65 631.385 181.983C631.555 182.315 631.79 182.569 632.092 182.744C632.393 182.917 632.746 183.003 633.149 183.003C633.41 183.003 633.649 182.966 633.864 182.892C634.08 182.815 634.266 182.701 634.423 182.55C634.58 182.4 634.7 182.213 634.783 181.992L636.089 182.227C635.985 182.612 635.797 182.949 635.526 183.238C635.258 183.525 634.921 183.748 634.515 183.908C634.112 184.065 633.652 184.143 633.135 184.143ZM637.709 184V176.909H639.043V178.036H639.117C639.246 177.654 639.474 177.354 639.8 177.135C640.129 176.914 640.502 176.803 640.917 176.803C641.003 176.803 641.105 176.806 641.222 176.812C641.342 176.818 641.436 176.826 641.503 176.835V178.156C641.448 178.14 641.35 178.123 641.208 178.105C641.066 178.083 640.925 178.072 640.783 178.072C640.457 178.072 640.166 178.142 639.911 178.28C639.658 178.416 639.458 178.605 639.311 178.848C639.163 179.088 639.089 179.362 639.089 179.67V184H637.709Z"
        fill="#64748b"
      />
    </g>
    <!-- #endregion -->

    <!-- #region additional  -->
    <g class="animate-fade-in-right additional">
      <g class="additional__indicator animate-fade-in">
        <circle cx="373" cy="215" r="5" fill="#01bf71" class="animate-ping" />
        <circle cx="373" cy="215" r="3" fill="#01bf71" />
      </g>
      <g class="additional__text">
        <path
          d="M386.132 219L389.156 210.06H391.628L394.652 219H392.624L392.024 217.176H388.748L388.148 219H386.132ZM389.264 215.556H391.508L390.14 211.332H390.644L389.264 215.556ZM397.501 219L394.441 210.06H396.481L398.785 217.236H398.377L400.681 210.06H402.721L399.661 219H397.501ZM402.503 219L405.527 210.06H407.999L411.023 219H408.995L408.395 217.176H405.119L404.519 219H402.503ZM405.635 215.556H407.879L406.511 211.332H407.015L405.635 215.556ZM411.952 219V210.06H413.812V219H411.952ZM415.397 219V210.06H417.257V217.38H421.037V219H415.397ZM421.3 219L424.324 210.06H426.796L429.82 219H427.792L427.192 217.176H423.916L423.316 219H421.3ZM424.432 215.556H426.676L425.308 211.332H425.812L424.432 215.556ZM430.749 219V210.06H434.529C435.145 210.06 435.673 210.164 436.113 210.372C436.553 210.58 436.889 210.88 437.121 211.272C437.353 211.656 437.469 212.124 437.469 212.676C437.469 213.068 437.361 213.444 437.145 213.804C436.929 214.156 436.573 214.452 436.077 214.692V213.78C436.549 213.964 436.913 214.184 437.169 214.44C437.425 214.696 437.601 214.976 437.697 215.28C437.793 215.576 437.841 215.888 437.841 216.216C437.841 217.096 437.549 217.78 436.965 218.268C436.381 218.756 435.569 219 434.529 219H430.749ZM432.609 217.38H434.745C435.121 217.38 435.421 217.272 435.645 217.056C435.869 216.84 435.981 216.56 435.981 216.216C435.981 215.864 435.869 215.58 435.645 215.364C435.421 215.148 435.121 215.04 434.745 215.04H432.609V217.38ZM432.609 213.42H434.661C434.949 213.42 435.177 213.34 435.345 213.18C435.521 213.012 435.609 212.792 435.609 212.52C435.609 212.248 435.521 212.032 435.345 211.872C435.177 211.704 434.949 211.62 434.661 211.62H432.609V213.42ZM439.034 219V210.06H440.894V217.38H444.674V219H439.034ZM445.597 219V210.06H451.609V211.68H447.457V213.708H451.369V215.328H447.457V217.38H451.609V219H445.597ZM454.819 219V210.06H460.939V211.68H456.679V213.948H460.339V215.568H456.679V219H454.819ZM466.221 219.144C465.549 219.144 464.925 219.028 464.349 218.796C463.773 218.564 463.269 218.24 462.837 217.824C462.413 217.4 462.081 216.908 461.841 216.348C461.601 215.788 461.481 215.18 461.481 214.524C461.481 213.868 461.597 213.26 461.829 212.7C462.069 212.14 462.401 211.652 462.825 211.236C463.257 210.82 463.761 210.496 464.337 210.264C464.913 210.032 465.541 209.916 466.221 209.916C466.901 209.916 467.529 210.032 468.105 210.264C468.681 210.496 469.181 210.82 469.605 211.236C470.037 211.652 470.369 212.14 470.601 212.7C470.841 213.26 470.961 213.868 470.961 214.524C470.961 215.18 470.841 215.788 470.601 216.348C470.361 216.908 470.025 217.4 469.593 217.824C469.169 218.24 468.669 218.564 468.093 218.796C467.517 219.028 466.893 219.144 466.221 219.144ZM466.221 217.464C466.629 217.464 467.005 217.392 467.349 217.248C467.701 217.104 468.009 216.904 468.273 216.648C468.537 216.384 468.741 216.072 468.885 215.712C469.029 215.352 469.101 214.956 469.101 214.524C469.101 214.092 469.029 213.7 468.885 213.348C468.741 212.988 468.537 212.676 468.273 212.412C468.009 212.148 467.701 211.948 467.349 211.812C467.005 211.668 466.629 211.596 466.221 211.596C465.813 211.596 465.433 211.668 465.081 211.812C464.737 211.948 464.433 212.148 464.169 212.412C463.905 212.676 463.701 212.988 463.557 213.348C463.413 213.7 463.341 214.092 463.341 214.524C463.341 214.956 463.413 215.352 463.557 215.712C463.701 216.072 463.905 216.384 464.169 216.648C464.433 216.904 464.737 217.104 465.081 217.248C465.433 217.392 465.813 217.464 466.221 217.464ZM472.28 219V210.06H475.7C476.316 210.06 476.86 210.168 477.332 210.384C477.812 210.6 478.188 210.92 478.46 211.344C478.732 211.768 478.868 212.292 478.868 212.916C478.868 213.524 478.728 214.044 478.448 214.476C478.168 214.9 477.792 215.22 477.32 215.436L479.36 219H477.272L475.064 215.052L476.264 215.76H474.14V219H472.28ZM474.14 214.14H475.712C475.976 214.14 476.204 214.088 476.396 213.984C476.588 213.88 476.736 213.736 476.84 213.552C476.952 213.368 477.008 213.156 477.008 212.916C477.008 212.668 476.952 212.452 476.84 212.268C476.736 212.084 476.588 211.94 476.396 211.836C476.204 211.732 475.976 211.68 475.712 211.68H474.14V214.14ZM482.44 219V210.06H484.3V213.924H487.78V210.06H489.64V219H487.78V215.544H484.3V219H482.44ZM491.229 219V210.06H493.09V219H491.229ZM494.675 219V210.06H498.095C498.711 210.06 499.255 210.168 499.727 210.384C500.207 210.6 500.583 210.92 500.855 211.344C501.127 211.768 501.263 212.292 501.263 212.916C501.263 213.524 501.123 214.044 500.843 214.476C500.563 214.9 500.187 215.22 499.715 215.436L501.755 219H499.667L497.459 215.052L498.659 215.76H496.535V219H494.675ZM496.535 214.14H498.107C498.371 214.14 498.599 214.088 498.791 213.984C498.983 213.88 499.131 213.736 499.235 213.552C499.347 213.368 499.403 213.156 499.403 212.916C499.403 212.668 499.347 212.452 499.235 212.268C499.131 212.084 498.983 211.94 498.791 211.836C498.599 211.732 498.371 211.68 498.107 211.68H496.535V214.14ZM502.679 219V210.06H508.691V211.68H504.539V213.708H508.451V215.328H504.539V217.38H508.691V219H502.679Z"
          fill="#01bf71"
        />
      </g>
    </g>
    <!-- #endregion -->
  </g>

  <!-- #region defs -->
  <defs>
    <linearGradient
      id="paint0_linear_1_2"
      x1="448"
      y1="0"
      x2="448"
      y2="288"
      gradientUnits="userSpaceOnUse"
    >
      <stop stop-color="#e2e8f0" />
      <stop offset="1" stop-color="#e2e8f0" stop-opacity="0" />
    </linearGradient>
    <linearGradient
      id="paint1_linear_1_2"
      x1="448"
      y1="0"
      x2="448"
      y2="288"
      gradientUnits="userSpaceOnUse"
    >
      <stop />
      <stop offset="1" stop-opacity="0" />
    </linearGradient>
    <clipPath id="clip0_1_2">
      <path
        d="M0 32C0 14.3269 14.3269 0 32 0H864C881.673 0 896 14.3269 896 32V288H0V32Z"
        fill="white"
      />
    </clipPath>
  </defs>
  <!-- #endregion -->
</svg>
